#!OML:ASF E:/inclinewalkrobotboard/Project1/Captureday1/Session1/subject1.ASF
:FULLY-SPECIFIED
:DEGREES
138
root 0 0 0 85.61944990303283 -33.18565152407168 -56.105592961971126
lowerback -11.442718036503868 9.710314063791458 14.195575151416845
upperback -20.79323626471478 12.309470107278221 3.1284481961793125
thorax -15.228850651853397 4.23204575697447 -3.7834660300163767
lowerneck -8.944360054500303 11.971913515500844 6.241524134328494
upperneck 10.15639434116324 14.268661428646283 9.164944554508448
head 4.524758405059992 7.723135753461924 2.792901677204615
rclavicle 9.428940423436616E-15 7.880940640106897E-15
rhumerus 33.782190512187306 -50.113990385785435 -14.56044300122209
rradius 19.909092826802365
rwrist 40.38046140469844
rhand 0.5677730218796535 2.325172121100924
rfingers 7.125020000000066
rthumb 26.134926726116117 -25.86498364236241
lclavicle 8.719052642165436E-16 2.071209595972574E-15
lhumerus -7.227546380434123 12.988595736493718 -4.197010974333665
lradius 20.90331523742062
lwrist -38.935941385997324
lhand 0.5056979336920098 34.34929109259713
lfingers 7.125020000000039
lthumb 26.045226324718996 62.47971110179607
rfemur 206.37590201576893 -182.70168529359046 -174.29535832085722
rtibia 56.74168251456681
rfoot 58.32234412565673 -31.03547420509264
rtoes 15.77411354959989
lfemur -54.30748786744163 25.56132402020735 21.301900160390346
ltibia 22.99286800699136
lfoot -66.10095908387473 8.912391399528538
ltoes 60.372490392772775
139
root 0 0 0 85.63554829938394 -33.19718124163535 -56.11929823484885
lowerback -11.449827825999746 9.709186134583334 14.180373964832484
upperback -20.781581866157005 12.308106358803185 3.122416269390649
thorax -15.212088275278965 4.233692839278272 -3.7846160519875838
lowerneck -8.958027663000248 11.966287593957352 6.244653561473208
upperneck 10.163744910581537 14.259984073210376 9.150508058415763
head 4.531020997627025 7.71886124401104 2.788179655639654
rclavicle 9.40732424570003E-15 7.846606853605918E-15
rhumerus 33.99813375399662 -50.06390750653293 -14.807351154178761
rradius 19.945362380663926
rwrist 40.36587751596447
rhand 0.5758454566508693 2.3323775172021586
rfingers 7.125020000000067
rthumb 26.143008229838962 -25.85432405236811
lclavicle 9.003881997921738E-16 2.0228335517666216E-15
lhumerus -7.133333260771892 12.9724731479949 -4.23383669231972
lradius 20.926492420558034
lwrist -38.873391763031066
lhand 0.526059911973048 34.372823687926335
lfingers 7.125020000000039
lthumb 26.064237214291282 62.49885707662183
rfemur 206.41405115317008 -182.73408725231806 -174.32543683270774
rtibia 56.76983952181569
rfoot 58.36222790793725 -30.998004179565925
rtoes 15.756004001662534
lfemur -54.298922406245794 25.548024441977425 21.296208004587115
ltibia 22.97645419480244
lfoot -66.11810384249377 8.90169491764985
ltoes 60.364582628575945
140
root 0 0 0 85.62913624887454 -33.190823102938154 -56.11302282501743
lowerback -11.446827313393067 9.709705714988997 14.187294115056512
upperback -20.787468114327556 12.308649177121588 3.1251451409854156
thorax -15.220207061196174 4.232852337294682 -3.7840872210220082
lowerneck -8.951440958794795 11.969147884708132 6.243240196496529
upperneck 10.158761983272507 14.264424345252737 9.157393973888073
head 4.527415003917003 7.721039431479577 2.7904486170079528
rclavicle 9.375907689368195E-15 7.843955061907651E-15
rhumerus 33.88820163968172 -50.091631623163515 -14.698335229813168
rradius 19.919360284612075
rwrist 40.36275240282556
rhand 0.5710094688262681 2.3285292112989993
rfingers 7.125020000000066
rthumb 26.137996843928075 -25.86000652743622
lclavicle 8.487123911047852E-16 2.029744281875325E-15
lhumerus -7.142383209382974 12.979758378380138 -4.233008775559384
lradius 20.91062670226477
lwrist -38.909440864735316
lhand 0.5206315378682704 34.361420595571204
lfingers 7.125020000000039
lthumb 26.05932672039522 62.488841520459715
rfemur 206.39499084085503 -182.7181352837511 -174.30695763678978
rtibia 56.75528709281089
rfoot 58.3478707859268 -31.018481459553804
rtoes 15.766201186677709
lfemur -54.30840594860899 25.554190865836958 21.300054210941937
ltibia 22.987083396467504
lfoot -66.11006932049426 8.911668040885953
ltoes 60.367793437536015
141
root 0 0 0 85.62507089609953 -33.188286209145055 -56.10983485250018
lowerback -11.445153211445415 9.709976738570065 14.190731178958519
upperback -20.79001345385864 12.309010037330403 3.1265488785105298
thorax -15.223957307913437 4.2325171519109634 -3.783771580790475
lowerneck -8.948400738528674 11.97042462556203 6.242571755021363
upperneck 10.157453250428617 14.266373103237468 9.160635457601462
head 4.526166669790316 7.722004213983257 2.7914977650542427
rclavicle 9.404565067961795E-15 7.860414439776533E-15
rhumerus 33.84384161053409 -50.10410298189521 -14.638091149159237
rradius 19.910387630735876
rwrist 40.37154072725532
rhand 0.5701235110575231 2.3258104376659876
rfingers 7.125020000000066
rthumb 26.137134127497134 -25.863344010314535
lclavicle 8.601452932629803E-16 2.047006110340011E-15
lhumerus -7.174514340221466 12.9845634572342 -4.221773559998454
lradius 20.90556762124022
lwrist -38.9226365410224
lhand 0.5150049964381249 34.35548503254742
lfingers 7.125020000000039
lthumb 26.054036102422224 62.484128362377284
rfemur 206.38647393473593 -182.7095313637973 -174.30081276137287
rtibia 56.74864031648486
rfoot 58.33845479961174 -31.026726720929698
rtoes 15.771652804421528
lfemur -54.30781859163542 25.55778245617914 21.300890141667885
ltibia 22.990393727993652
lfoot -66.10728243986935 8.913621080014154
ltoes 60.37032849829591
